<svg xmlns="http://www.w3.org/2000/svg" viewBox="0 0 256 256">
  <g transform="translate(128, 128)">
    <g transform="rotate(0)">
      <path d="M 0 -20 L -18 -35 L -18 -80 A 18 18 0 0 1 18 -80 L 18 -35 Z" fill="#640ec1" />
    </g>
    <g transform="rotate(60)">
      <path d="M 0 -20 L -18 -35 L -18 -80 A 18 18 0 0 1 18 -80 L 18 -35 Z" fill="#640ec1" />
    </g>
    <g transform="rotate(120)">
      <path d="M 0 -20 L -18 -35 L -18 -80 A 18 18 0 0 1 18 -80 L 18 -35 Z" fill="#640ec1" />
    </g>
    <g transform="rotate(180)">
      <path d="M 0 -20 L -18 -35 L -18 -80 A 18 18 0 0 1 18 -80 L 18 -35 Z" fill="#640ec1" />
    </g>
    <g transform="rotate(240)">
      <path d="M 0 -20 L -18 -35 L -18 -80 A 18 18 0 0 1 18 -80 L 18 -35 Z" fill="#640ec1" />
    </g>
    <g transform="rotate(300)">
      <path d="M 0 -20 L -18 -35 L -18 -80 A 18 18 0 0 1 18 -80 L 18 -35 Z" fill="#640ec1" />
    </g>
  </g>
</svg>
